<svg aria-hidden="true" style="position: absolute; width: 0; height: 0; overflow: hidden;" version="1.1" xmlns="http://www.w3.org/2000/svg" xmlns:xlink="http://www.w3.org/1999/xlink">
<defs>
<symbol id="icon-spotify" viewBox="0 0 20 20">
<path d="M10 1.2c-4.861 0-8.8 3.938-8.8 8.8 0 4.859 3.939 8.8 8.8 8.8s8.799-3.94 8.799-8.8c0-4.861-3.936-8.8-8.799-8.8zM13.478 14.502c-0.173 0-0.294-0.066-0.421-0.143-1.189-0.721-2.662-1.099-4.258-1.099-0.814 0-1.693 0.097-2.61 0.285l-0.112 0.028c-0.116 0.028-0.235 0.059-0.326 0.059-0.371 0-0.661-0.288-0.661-0.656 0-0.373 0.21-0.637 0.562-0.703 1.096-0.25 2.128-0.372 3.152-0.372 1.855 0 3.513 0.43 4.931 1.279 0.243 0.142 0.396 0.306 0.396 0.668-0.001 0.361-0.293 0.654-0.653 0.654zM14.391 11.941c-0.207 0-0.343-0.079-0.463-0.149-2.143-1.271-5.333-1.693-7.961-0.993-0.044 0.013-0.084 0.025-0.12 0.037-0.099 0.031-0.191 0.062-0.321 0.062-0.432 0-0.783-0.353-0.783-0.788 0-0.419 0.219-0.712 0.614-0.824 1.013-0.278 1.964-0.462 3.333-0.462 2.212 0 4.357 0.555 6.038 1.561 0.306 0.175 0.445 0.414 0.445 0.771 0 0.434-0.351 0.785-0.782 0.785zM15.427 9.021c-0.195 0-0.315-0.047-0.495-0.144-1.453-0.872-3.72-1.391-6.069-1.391-1.224 0-2.336 0.135-3.306 0.397-0.033 0.008-0.064 0.017-0.098 0.027-0.103 0.031-0.232 0.068-0.365 0.068-0.516 0-0.919-0.408-0.919-0.929 0-0.453 0.254-0.799 0.68-0.925 1.171-0.346 2.519-0.521 4.006-0.521 2.678 0 5.226 0.595 6.991 1.631 0.332 0.189 0.495 0.475 0.495 0.872 0 0.513-0.404 0.915-0.92 0.915z"></path>
</symbol>
<symbol id="icon-instagram" viewBox="0 0 20 20">
<path d="M17 1h-14c-1.1 0-2 0.9-2 2v14c0 1.101 0.9 2 2 2h14c1.1 0 2-0.899 2-2v-14c0-1.1-0.9-2-2-2zM9.984 15.523c3.059 0 5.538-2.481 5.538-5.539 0-0.338-0.043-0.664-0.103-0.984h1.581v7.216c0 0.382-0.31 0.69-0.693 0.69h-12.614c-0.383 0-0.693-0.308-0.693-0.69v-7.216h1.549c-0.061 0.32-0.104 0.646-0.104 0.984 0 3.059 2.481 5.539 5.539 5.539zM6.523 9.984c0-1.912 1.55-3.461 3.462-3.461s3.462 1.549 3.462 3.461-1.551 3.462-3.462 3.462c-1.913 0-3.462-1.55-3.462-3.462zM16.307 6h-1.615c-0.382 0-0.692-0.312-0.692-0.692v-1.617c0-0.382 0.31-0.691 0.691-0.691h1.615c0.384 0 0.694 0.309 0.694 0.691v1.616c0 0.381-0.31 0.693-0.693 0.693z"></path>
</symbol>
<symbol id="icon-appleinc" viewBox="0 0 32 32">
<path d="M24.734 17.003c-0.040-4.053 3.305-5.996 3.454-6.093-1.88-2.751-4.808-3.127-5.851-3.171-2.492-0.252-4.862 1.467-6.127 1.467-1.261 0-3.213-1.43-5.28-1.392-2.716 0.040-5.221 1.579-6.619 4.012-2.822 4.897-0.723 12.151 2.028 16.123 1.344 1.944 2.947 4.127 5.051 4.049 2.026-0.081 2.793-1.311 5.242-1.311s3.138 1.311 5.283 1.271c2.18-0.041 3.562-1.981 4.897-3.931 1.543-2.255 2.179-4.439 2.216-4.551-0.048-0.022-4.252-1.632-4.294-6.473zM20.705 5.11c1.117-1.355 1.871-3.235 1.665-5.11-1.609 0.066-3.559 1.072-4.713 2.423-1.036 1.199-1.942 3.113-1.699 4.951 1.796 0.14 3.629-0.913 4.747-2.264z"></path>
</symbol>
</defs>
</svg>
